<?xml version="1.0" encoding="UTF-8" standalone="no"?>
<!DOCTYPE svg PUBLIC "-//W3C//DTD SVG 1.1//EN"
 "http://www.w3.org/Graphics/SVG/1.1/DTD/svg11.dtd">
<!-- Generated by graphviz version 2.43.0 (0)
 -->
<!-- Title: %3 Pages: 1 -->
<svg width="422pt" height="2163pt"
 viewBox="0.00 0.00 422.00 2163.00" xmlns="http://www.w3.org/2000/svg" xmlns:xlink="http://www.w3.org/1999/xlink">
<g id="graph0" class="graph" transform="scale(1 1) rotate(0) translate(4 2159)">
<title>%3</title>
<polygon fill="white" stroke="transparent" points="-4,4 -4,-2159 418,-2159 418,4 -4,4"/>
<!-- 8 -->
<g id="node1" class="node">
<title>8</title>
<g id="a_node1"><a xlink:title="[1, 1, 28, 28]">
<polygon fill="gray" stroke="red" stroke-width="3" points="301,-2155 193,-2155 193,-2102 301,-2102 301,-2155"/>
<text text-anchor="middle" x="247" y="-2139.8" font-family="Helvetica,sans-Serif" font-size="14.00">tensor&#45;0</text>
<text text-anchor="middle" x="247" y="-2124.8" font-family="Helvetica,sans-Serif" font-size="14.00">[1, 1, 28, 28]</text>
<text text-anchor="middle" x="247" y="-2109.8" font-family="Helvetica,sans-Serif" font-size="14.00">FP32 NCHW</text>
</a>
</g>
</g>
<!-- 0 -->
<g id="node2" class="node">
<title>0</title>
<g id="a_node2"><a xlink:title="Activation:RELU&#10;Bias:{&#39;Type&#39;: &#39;Float&#39;, &#39;Count&#39;: 32}&#10;Dilation:[1, 1]&#10;Groups:1&#10;HasBias:1&#10;HasReLU:1&#10;HasSparseWeights:0&#10;Kernel:[5, 5]&#10;LayerType:CaskConvolution&#10;Name:Conv&#45;1 + ReLU&#45;2&#10;OutMaps:32&#10;PaddingMode:kEXPLICIT_ROUND_DOWN&#10;PostPadding:[2, 2]&#10;PrePadding:[2, 2]&#10;Stride:[1, 1]&#10;TacticName:maxwell_scudnn_128x32_relu_small_nn_v0&#10;TacticValue:0x632674f65e3422ae&#10;Weights:{&#39;Type&#39;: &#39;Float&#39;, &#39;Count&#39;: 800}&#10;">
<path fill="#4682b4" stroke="white" d="M171.5,-1952.5C171.5,-1952.5 322.5,-1952.5 322.5,-1952.5 328.5,-1952.5 334.5,-1958.5 334.5,-1964.5 334.5,-1964.5 334.5,-2023.5 334.5,-2023.5 334.5,-2029.5 328.5,-2035.5 322.5,-2035.5 322.5,-2035.5 171.5,-2035.5 171.5,-2035.5 165.5,-2035.5 159.5,-2029.5 159.5,-2023.5 159.5,-2023.5 159.5,-1964.5 159.5,-1964.5 159.5,-1958.5 165.5,-1952.5 171.5,-1952.5"/>
<polygon fill="none" stroke="transparent" points="168,-2006 168,-2031 327,-2031 327,-2006 168,-2006"/>
<text text-anchor="start" x="173" y="-2015.8" font-family="Helvetica,sans-Serif" font-weight="bold" font-size="14.00">Convolution (0 ms)</text>
<polygon fill="none" stroke="transparent" points="168,-1981 168,-2006 327,-2006 327,-1981 168,-1981"/>
<text text-anchor="start" x="220" y="-1989.8" font-family="Helvetica,sans-Serif" font-size="14.00">Conv&#45;1 </text>
<polygon fill="none" stroke="transparent" points="168,-1956 168,-1981 327,-1981 327,-1956 168,-1956"/>
<text text-anchor="start" x="220.5" y="-1964.8" font-family="Helvetica,sans-Serif" font-size="14.00"> ReLU&#45;2</text>
</a>
</g>
</g>
<!-- 8&#45;&gt;0 -->
<g id="edge1" class="edge">
<title>8&#45;&gt;0</title>
<path fill="none" stroke="red" d="M247,-2101.95C247,-2086.02 247,-2064.95 247,-2045.73"/>
<polygon fill="red" stroke="red" points="250.5,-2045.59 247,-2035.59 243.5,-2045.59 250.5,-2045.59"/>
<text text-anchor="middle" x="293" y="-2072.8" font-family="Times,serif" font-size="14.00">[1, 1, 28, 28]</text>
<text text-anchor="middle" x="293" y="-2057.8" font-family="Times,serif" font-size="14.00">FP32 NCHW</text>
</g>
<!-- 9 -->
<g id="node3" class="node">
<title>9</title>
<g id="a_node3"><a xlink:title="[1, 32, 28, 28]">
<polygon fill="none" stroke="red" stroke-width="3" stroke-dasharray="5,2" points="305.5,-1886 188.5,-1886 188.5,-1833 305.5,-1833 305.5,-1886"/>
<text text-anchor="middle" x="247" y="-1870.8" font-family="Helvetica,sans-Serif" font-size="14.00">tensor&#45;2</text>
<text text-anchor="middle" x="247" y="-1855.8" font-family="Helvetica,sans-Serif" font-size="14.00">[1, 32, 28, 28]</text>
<text text-anchor="middle" x="247" y="-1840.8" font-family="Helvetica,sans-Serif" font-size="14.00">FP32 NCHW</text>
</a>
</g>
</g>
<!-- 0&#45;&gt;9 -->
<g id="edge2" class="edge">
<title>0&#45;&gt;9</title>
<path fill="none" stroke="red" d="M247,-1952.16C247,-1934.41 247,-1913.78 247,-1896.59"/>
<polygon fill="red" stroke="red" points="250.5,-1896.39 247,-1886.39 243.5,-1896.39 250.5,-1896.39"/>
<text text-anchor="middle" x="297.5" y="-1922.8" font-family="Times,serif" font-size="14.00">[1, 32, 28, 28]</text>
<text text-anchor="middle" x="297.5" y="-1907.8" font-family="Times,serif" font-size="14.00">FP32 NCHW</text>
</g>
<!-- 1 -->
<g id="node4" class="node">
<title>1</title>
<g id="a_node4"><a xlink:title="AverageCountExcludesPadding:1&#10;BlendFactor:0&#10;LayerType:TiledPooling&#10;Name:MaxPool&#45;3&#10;PaddingMode:kEXPLICIT_ROUND_DOWN&#10;PoolingType:MAX&#10;PostPadding:[0, 0]&#10;PrePadding:[0, 0]&#10;Stride:[2, 2]&#10;TacticValue:0x00000000005e0101&#10;WindowSize:[2, 2]&#10;">
<path fill="#3cb371" stroke="white" d="M189,-1708.5C189,-1708.5 305,-1708.5 305,-1708.5 311,-1708.5 317,-1714.5 317,-1720.5 317,-1720.5 317,-1754.5 317,-1754.5 317,-1760.5 311,-1766.5 305,-1766.5 305,-1766.5 189,-1766.5 189,-1766.5 183,-1766.5 177,-1760.5 177,-1754.5 177,-1754.5 177,-1720.5 177,-1720.5 177,-1714.5 183,-1708.5 189,-1708.5"/>
<polygon fill="none" stroke="transparent" points="185,-1737.5 185,-1762.5 309,-1762.5 309,-1737.5 185,-1737.5"/>
<text text-anchor="start" x="190" y="-1747.3" font-family="Helvetica,sans-Serif" font-weight="bold" font-size="14.00">Pooling (0 ms)</text>
<polygon fill="none" stroke="transparent" points="185,-1712.5 185,-1737.5 309,-1737.5 309,-1712.5 185,-1712.5"/>
<text text-anchor="start" x="211" y="-1721.3" font-family="Helvetica,sans-Serif" font-size="14.00">MaxPool&#45;3</text>
</a>
</g>
</g>
<!-- 9&#45;&gt;1 -->
<g id="edge3" class="edge">
<title>9&#45;&gt;1</title>
<path fill="none" stroke="red" d="M247,-1832.76C247,-1816.45 247,-1795.06 247,-1776.78"/>
<polygon fill="red" stroke="red" points="250.5,-1776.72 247,-1766.72 243.5,-1776.72 250.5,-1776.72"/>
<text text-anchor="middle" x="297.5" y="-1803.8" font-family="Times,serif" font-size="14.00">[1, 32, 28, 28]</text>
<text text-anchor="middle" x="297.5" y="-1788.8" font-family="Times,serif" font-size="14.00">FP32 NCHW</text>
</g>
<!-- 10 -->
<g id="node5" class="node">
<title>10</title>
<g id="a_node5"><a xlink:title="[1, 32, 14, 14]">
<polygon fill="none" stroke="red" stroke-width="3" stroke-dasharray="5,2" points="305.5,-1642 188.5,-1642 188.5,-1589 305.5,-1589 305.5,-1642"/>
<text text-anchor="middle" x="247" y="-1626.8" font-family="Helvetica,sans-Serif" font-size="14.00">tensor&#45;3</text>
<text text-anchor="middle" x="247" y="-1611.8" font-family="Helvetica,sans-Serif" font-size="14.00">[1, 32, 14, 14]</text>
<text text-anchor="middle" x="247" y="-1596.8" font-family="Helvetica,sans-Serif" font-size="14.00">FP32 NCHW</text>
</a>
</g>
</g>
<!-- 1&#45;&gt;10 -->
<g id="edge4" class="edge">
<title>1&#45;&gt;10</title>
<path fill="none" stroke="red" d="M247,-1708.37C247,-1691.57 247,-1670.09 247,-1652.12"/>
<polygon fill="red" stroke="red" points="250.5,-1652.01 247,-1642.01 243.5,-1652.01 250.5,-1652.01"/>
<text text-anchor="middle" x="297.5" y="-1678.8" font-family="Times,serif" font-size="14.00">[1, 32, 14, 14]</text>
<text text-anchor="middle" x="297.5" y="-1663.8" font-family="Times,serif" font-size="14.00">FP32 NCHW</text>
</g>
<!-- 2 -->
<g id="node6" class="node">
<title>2</title>
<g id="a_node6"><a xlink:title="Activation:RELU&#10;Bias:{&#39;Type&#39;: &#39;Float&#39;, &#39;Count&#39;: 64}&#10;ConvolutionTacticIndex:122&#10;Dilation:[1, 1]&#10;Groups:1&#10;HasBias:1&#10;HasSparseWeights:0&#10;Kernel:[5, 5]&#10;LayerType:FusedConvActConvolution&#10;Name:Conv&#45;4 + ReLU&#45;5&#10;OutMaps:64&#10;PaddingMode:kEXPLICIT_ROUND_DOWN&#10;PostPadding:[2, 2]&#10;PrePadding:[2, 2]&#10;Stride:[1, 1]&#10;TacticValue:0x00000000007affff&#10;Weights:{&#39;Type&#39;: &#39;Float&#39;, &#39;Count&#39;: 51200}&#10;">
<path fill="#4682b4" stroke="white" d="M171.5,-1439.5C171.5,-1439.5 322.5,-1439.5 322.5,-1439.5 328.5,-1439.5 334.5,-1445.5 334.5,-1451.5 334.5,-1451.5 334.5,-1510.5 334.5,-1510.5 334.5,-1516.5 328.5,-1522.5 322.5,-1522.5 322.5,-1522.5 171.5,-1522.5 171.5,-1522.5 165.5,-1522.5 159.5,-1516.5 159.5,-1510.5 159.5,-1510.5 159.5,-1451.5 159.5,-1451.5 159.5,-1445.5 165.5,-1439.5 171.5,-1439.5"/>
<polygon fill="none" stroke="transparent" points="168,-1493 168,-1518 327,-1518 327,-1493 168,-1493"/>
<text text-anchor="start" x="173" y="-1502.8" font-family="Helvetica,sans-Serif" font-weight="bold" font-size="14.00">Convolution (0 ms)</text>
<polygon fill="none" stroke="transparent" points="168,-1468 168,-1493 327,-1493 327,-1468 168,-1468"/>
<text text-anchor="start" x="220" y="-1476.8" font-family="Helvetica,sans-Serif" font-size="14.00">Conv&#45;4 </text>
<polygon fill="none" stroke="transparent" points="168,-1443 168,-1468 327,-1468 327,-1443 168,-1443"/>
<text text-anchor="start" x="220.5" y="-1451.8" font-family="Helvetica,sans-Serif" font-size="14.00"> ReLU&#45;5</text>
</a>
</g>
</g>
<!-- 10&#45;&gt;2 -->
<g id="edge5" class="edge">
<title>10&#45;&gt;2</title>
<path fill="none" stroke="red" d="M247,-1588.95C247,-1573.02 247,-1551.95 247,-1532.73"/>
<polygon fill="red" stroke="red" points="250.5,-1532.59 247,-1522.59 243.5,-1532.59 250.5,-1532.59"/>
<text text-anchor="middle" x="297.5" y="-1559.8" font-family="Times,serif" font-size="14.00">[1, 32, 14, 14]</text>
<text text-anchor="middle" x="297.5" y="-1544.8" font-family="Times,serif" font-size="14.00">FP32 NCHW</text>
</g>
<!-- 11 -->
<g id="node7" class="node">
<title>11</title>
<g id="a_node7"><a xlink:title="[1, 64, 14, 14]">
<polygon fill="none" stroke="red" stroke-width="3" stroke-dasharray="5,2" points="305.5,-1373 188.5,-1373 188.5,-1320 305.5,-1320 305.5,-1373"/>
<text text-anchor="middle" x="247" y="-1357.8" font-family="Helvetica,sans-Serif" font-size="14.00">tensor&#45;5</text>
<text text-anchor="middle" x="247" y="-1342.8" font-family="Helvetica,sans-Serif" font-size="14.00">[1, 64, 14, 14]</text>
<text text-anchor="middle" x="247" y="-1327.8" font-family="Helvetica,sans-Serif" font-size="14.00">FP32 NCHW</text>
</a>
</g>
</g>
<!-- 2&#45;&gt;11 -->
<g id="edge6" class="edge">
<title>2&#45;&gt;11</title>
<path fill="none" stroke="red" d="M247,-1439.16C247,-1421.41 247,-1400.78 247,-1383.59"/>
<polygon fill="red" stroke="red" points="250.5,-1383.39 247,-1373.39 243.5,-1383.39 250.5,-1383.39"/>
<text text-anchor="middle" x="297.5" y="-1409.8" font-family="Times,serif" font-size="14.00">[1, 64, 14, 14]</text>
<text text-anchor="middle" x="297.5" y="-1394.8" font-family="Times,serif" font-size="14.00">FP32 NCHW</text>
</g>
<!-- 3 -->
<g id="node8" class="node">
<title>3</title>
<g id="a_node8"><a xlink:title="AverageCountExcludesPadding:1&#10;BlendFactor:0&#10;LayerType:CaskPooling&#10;Name:MaxPool&#45;6&#10;PaddingMode:kEXPLICIT_ROUND_DOWN&#10;PoolingType:MAX&#10;PostPadding:[0, 0]&#10;PrePadding:[0, 0]&#10;Stride:[2, 2]&#10;TacticName:sm50_xmma_pooling_fw_4d_FP32FP32NCHW_Max&#10;TacticValue:0xb59f9cfb90407c92&#10;WindowSize:[2, 2]&#10;">
<path fill="#3cb371" stroke="white" d="M189,-1195.5C189,-1195.5 305,-1195.5 305,-1195.5 311,-1195.5 317,-1201.5 317,-1207.5 317,-1207.5 317,-1241.5 317,-1241.5 317,-1247.5 311,-1253.5 305,-1253.5 305,-1253.5 189,-1253.5 189,-1253.5 183,-1253.5 177,-1247.5 177,-1241.5 177,-1241.5 177,-1207.5 177,-1207.5 177,-1201.5 183,-1195.5 189,-1195.5"/>
<polygon fill="none" stroke="transparent" points="185,-1224.5 185,-1249.5 309,-1249.5 309,-1224.5 185,-1224.5"/>
<text text-anchor="start" x="190" y="-1234.3" font-family="Helvetica,sans-Serif" font-weight="bold" font-size="14.00">Pooling (0 ms)</text>
<polygon fill="none" stroke="transparent" points="185,-1199.5 185,-1224.5 309,-1224.5 309,-1199.5 185,-1199.5"/>
<text text-anchor="start" x="211" y="-1208.3" font-family="Helvetica,sans-Serif" font-size="14.00">MaxPool&#45;6</text>
</a>
</g>
</g>
<!-- 11&#45;&gt;3 -->
<g id="edge7" class="edge">
<title>11&#45;&gt;3</title>
<path fill="none" stroke="red" d="M247,-1319.76C247,-1303.45 247,-1282.06 247,-1263.78"/>
<polygon fill="red" stroke="red" points="250.5,-1263.72 247,-1253.72 243.5,-1263.72 250.5,-1263.72"/>
<text text-anchor="middle" x="297.5" y="-1290.8" font-family="Times,serif" font-size="14.00">[1, 64, 14, 14]</text>
<text text-anchor="middle" x="297.5" y="-1275.8" font-family="Times,serif" font-size="14.00">FP32 NCHW</text>
</g>
<!-- 12 -->
<g id="node9" class="node">
<title>12</title>
<g id="a_node9"><a xlink:title="[1, 64, 7, 7]">
<polygon fill="none" stroke="red" stroke-width="3" stroke-dasharray="5,2" points="297,-1129 197,-1129 197,-1076 297,-1076 297,-1129"/>
<text text-anchor="middle" x="247" y="-1113.8" font-family="Helvetica,sans-Serif" font-size="14.00">tensor&#45;6</text>
<text text-anchor="middle" x="247" y="-1098.8" font-family="Helvetica,sans-Serif" font-size="14.00">[1, 64, 7, 7]</text>
<text text-anchor="middle" x="247" y="-1083.8" font-family="Helvetica,sans-Serif" font-size="14.00">FP32 NCHW</text>
</a>
</g>
</g>
<!-- 3&#45;&gt;12 -->
<g id="edge8" class="edge">
<title>3&#45;&gt;12</title>
<path fill="none" stroke="red" d="M247,-1195.37C247,-1178.57 247,-1157.09 247,-1139.12"/>
<polygon fill="red" stroke="red" points="250.5,-1139.01 247,-1129.01 243.5,-1139.01 250.5,-1139.01"/>
<text text-anchor="middle" x="292.5" y="-1165.8" font-family="Times,serif" font-size="14.00">[1, 64, 7, 7]</text>
<text text-anchor="middle" x="292.5" y="-1150.8" font-family="Times,serif" font-size="14.00">FP32 NCHW</text>
</g>
<!-- 4 -->
<g id="node10" class="node">
<title>4</title>
<g id="a_node10"><a xlink:title="FirstTranspose:[0, 2, 3, 1]&#10;LayerType:Shuffle&#10;Name:Transpose&#45;7 + Reshape&#45;7 + reshape_before_MatMul&#45;9&#10;Reshape:[1, 3136, 1, 1]&#10;SecondTranspose:[0, 1, 2, 3]&#10;TacticValue:0x0000000000000000&#10;ZeroIsPlaceholder:0&#10;">
<path fill="#bc8f8f" stroke="white" d="M154.5,-901.5C154.5,-901.5 339.5,-901.5 339.5,-901.5 345.5,-901.5 351.5,-907.5 351.5,-913.5 351.5,-913.5 351.5,-997.5 351.5,-997.5 351.5,-1003.5 345.5,-1009.5 339.5,-1009.5 339.5,-1009.5 154.5,-1009.5 154.5,-1009.5 148.5,-1009.5 142.5,-1003.5 142.5,-997.5 142.5,-997.5 142.5,-913.5 142.5,-913.5 142.5,-907.5 148.5,-901.5 154.5,-901.5"/>
<polygon fill="none" stroke="transparent" points="151,-980.5 151,-1005.5 344,-1005.5 344,-980.5 151,-980.5"/>
<text text-anchor="start" x="192.5" y="-990.3" font-family="Helvetica,sans-Serif" font-weight="bold" font-size="14.00">Shuffle (0 ms)</text>
<polygon fill="none" stroke="transparent" points="151,-955.5 151,-980.5 344,-980.5 344,-955.5 151,-955.5"/>
<text text-anchor="start" x="202.5" y="-964.3" font-family="Helvetica,sans-Serif" font-size="14.00">Transpose&#45;7 </text>
<polygon fill="none" stroke="transparent" points="151,-930.5 151,-955.5 344,-955.5 344,-930.5 151,-930.5"/>
<text text-anchor="start" x="206" y="-939.3" font-family="Helvetica,sans-Serif" font-size="14.00"> Reshape&#45;7 </text>
<polygon fill="none" stroke="transparent" points="151,-905.5 151,-930.5 344,-930.5 344,-905.5 151,-905.5"/>
<text text-anchor="start" x="156" y="-914.3" font-family="Helvetica,sans-Serif" font-size="14.00"> reshape_before_MatMul&#45;9</text>
</a>
</g>
</g>
<!-- 12&#45;&gt;4 -->
<g id="edge9" class="edge">
<title>12&#45;&gt;4</title>
<path fill="none" stroke="red" d="M247,-1075.91C247,-1060.33 247,-1039.69 247,-1019.96"/>
<polygon fill="red" stroke="red" points="250.5,-1019.75 247,-1009.75 243.5,-1019.75 250.5,-1019.75"/>
<text text-anchor="middle" x="292.5" y="-1046.8" font-family="Times,serif" font-size="14.00">[1, 64, 7, 7]</text>
<text text-anchor="middle" x="292.5" y="-1031.8" font-family="Times,serif" font-size="14.00">FP32 NCHW</text>
</g>
<!-- 13 -->
<g id="node11" class="node">
<title>13</title>
<g id="a_node11"><a xlink:title="[1, 3136, 1, 1]">
<polygon fill="none" stroke="red" stroke-width="3" stroke-dasharray="5,2" points="384,-835 110,-835 110,-782 384,-782 384,-835"/>
<text text-anchor="middle" x="247" y="-819.8" font-family="Helvetica,sans-Serif" font-size="14.00">reshape_before_MatMul&#45;9_out_region</text>
<text text-anchor="middle" x="247" y="-804.8" font-family="Helvetica,sans-Serif" font-size="14.00">[1, 3136, 1, 1]</text>
<text text-anchor="middle" x="247" y="-789.8" font-family="Helvetica,sans-Serif" font-size="14.00">FP32 NCHW</text>
</a>
</g>
</g>
<!-- 4&#45;&gt;13 -->
<g id="edge10" class="edge">
<title>4&#45;&gt;13</title>
<path fill="none" stroke="red" d="M247,-901.33C247,-882.59 247,-861.99 247,-845.06"/>
<polygon fill="red" stroke="red" points="250.5,-845.04 247,-835.04 243.5,-845.04 250.5,-845.04"/>
<text text-anchor="middle" x="297.5" y="-871.8" font-family="Times,serif" font-size="14.00">[1, 3136, 1, 1]</text>
<text text-anchor="middle" x="297.5" y="-856.8" font-family="Times,serif" font-size="14.00">FP32 NCHW</text>
</g>
<!-- 5 -->
<g id="node12" class="node">
<title>5</title>
<g id="a_node12"><a xlink:title="Activation:RELU&#10;Bias:{&#39;Type&#39;: &#39;Float&#39;, &#39;Count&#39;: 1024}&#10;CublasConvolutionTacticIndex:0&#10;Dilation:[1, 1]&#10;Groups:1&#10;HasBias:1&#10;HasSparseWeights:0&#10;Kernel:[1, 1]&#10;LayerType:CublasConvolution&#10;Name:MatMul&#45;9 + ReLU&#45;11&#10;OutMaps:1024&#10;PaddingMode:kEXPLICIT_ROUND_DOWN&#10;PostPadding:[0, 0]&#10;PrePadding:[0, 0]&#10;Stride:[1, 1]&#10;TacticValue:0x0000000000000000&#10;Weights:{&#39;Type&#39;: &#39;Float&#39;, &#39;Count&#39;: 3211264}&#10;">
<path fill="#4682b4" stroke="white" d="M171.5,-632.5C171.5,-632.5 322.5,-632.5 322.5,-632.5 328.5,-632.5 334.5,-638.5 334.5,-644.5 334.5,-644.5 334.5,-703.5 334.5,-703.5 334.5,-709.5 328.5,-715.5 322.5,-715.5 322.5,-715.5 171.5,-715.5 171.5,-715.5 165.5,-715.5 159.5,-709.5 159.5,-703.5 159.5,-703.5 159.5,-644.5 159.5,-644.5 159.5,-638.5 165.5,-632.5 171.5,-632.5"/>
<polygon fill="none" stroke="transparent" points="168,-686 168,-711 327,-711 327,-686 168,-686"/>
<text text-anchor="start" x="173" y="-695.8" font-family="Helvetica,sans-Serif" font-weight="bold" font-size="14.00">Convolution (0 ms)</text>
<polygon fill="none" stroke="transparent" points="168,-661 168,-686 327,-686 327,-661 168,-661"/>
<text text-anchor="start" x="212.5" y="-669.8" font-family="Helvetica,sans-Serif" font-size="14.00">MatMul&#45;9 </text>
<polygon fill="none" stroke="transparent" points="168,-636 168,-661 327,-661 327,-636 168,-636"/>
<text text-anchor="start" x="216" y="-644.8" font-family="Helvetica,sans-Serif" font-size="14.00"> ReLU&#45;11</text>
</a>
</g>
</g>
<!-- 13&#45;&gt;5 -->
<g id="edge11" class="edge">
<title>13&#45;&gt;5</title>
<path fill="none" stroke="red" d="M247,-781.95C247,-766.02 247,-744.95 247,-725.73"/>
<polygon fill="red" stroke="red" points="250.5,-725.59 247,-715.59 243.5,-725.59 250.5,-725.59"/>
<text text-anchor="middle" x="297.5" y="-752.8" font-family="Times,serif" font-size="14.00">[1, 3136, 1, 1]</text>
<text text-anchor="middle" x="297.5" y="-737.8" font-family="Times,serif" font-size="14.00">FP32 NCHW</text>
</g>
<!-- 14 -->
<g id="node13" class="node">
<title>14</title>
<g id="a_node13"><a xlink:title="[1, 1024, 1, 1]">
<polygon fill="none" stroke="red" stroke-width="3" stroke-dasharray="5,2" points="324.5,-566 169.5,-566 169.5,-513 324.5,-513 324.5,-566"/>
<text text-anchor="middle" x="247" y="-550.8" font-family="Helvetica,sans-Serif" font-size="14.00">ReLU&#45;11_out_tensor</text>
<text text-anchor="middle" x="247" y="-535.8" font-family="Helvetica,sans-Serif" font-size="14.00">[1, 1024, 1, 1]</text>
<text text-anchor="middle" x="247" y="-520.8" font-family="Helvetica,sans-Serif" font-size="14.00">FP32 NCHW</text>
</a>
</g>
</g>
<!-- 5&#45;&gt;14 -->
<g id="edge12" class="edge">
<title>5&#45;&gt;14</title>
<path fill="none" stroke="red" d="M247,-632.16C247,-614.41 247,-593.78 247,-576.59"/>
<polygon fill="red" stroke="red" points="250.5,-576.39 247,-566.39 243.5,-576.39 250.5,-576.39"/>
<text text-anchor="middle" x="297.5" y="-602.8" font-family="Times,serif" font-size="14.00">[1, 1024, 1, 1]</text>
<text text-anchor="middle" x="297.5" y="-587.8" font-family="Times,serif" font-size="14.00">FP32 NCHW</text>
</g>
<!-- 6 -->
<g id="node14" class="node">
<title>6</title>
<g id="a_node14"><a xlink:title="Activation:NONE&#10;Bias:{&#39;Type&#39;: &#39;Float&#39;, &#39;Count&#39;: 10}&#10;CublasConvolutionTacticIndex:1&#10;Dilation:[1, 1]&#10;Groups:1&#10;HasBias:1&#10;HasSparseWeights:0&#10;Kernel:[1, 1]&#10;LayerType:CublasConvolution&#10;Name:MatMul&#45;12&#10;OutMaps:10&#10;PaddingMode:kEXPLICIT_ROUND_DOWN&#10;PostPadding:[0, 0]&#10;PrePadding:[0, 0]&#10;Stride:[1, 1]&#10;TacticValue:0x0000000000000001&#10;Weights:{&#39;Type&#39;: &#39;Float&#39;, &#39;Count&#39;: 10240}&#10;">
<path fill="#4682b4" stroke="white" d="M171.5,-388.5C171.5,-388.5 322.5,-388.5 322.5,-388.5 328.5,-388.5 334.5,-394.5 334.5,-400.5 334.5,-400.5 334.5,-434.5 334.5,-434.5 334.5,-440.5 328.5,-446.5 322.5,-446.5 322.5,-446.5 171.5,-446.5 171.5,-446.5 165.5,-446.5 159.5,-440.5 159.5,-434.5 159.5,-434.5 159.5,-400.5 159.5,-400.5 159.5,-394.5 165.5,-388.5 171.5,-388.5"/>
<polygon fill="none" stroke="transparent" points="168,-417.5 168,-442.5 327,-442.5 327,-417.5 168,-417.5"/>
<text text-anchor="start" x="173" y="-427.3" font-family="Helvetica,sans-Serif" font-weight="bold" font-size="14.00">Convolution (0 ms)</text>
<polygon fill="none" stroke="transparent" points="168,-392.5 168,-417.5 327,-417.5 327,-392.5 168,-392.5"/>
<text text-anchor="start" x="210.5" y="-401.3" font-family="Helvetica,sans-Serif" font-size="14.00">MatMul&#45;12</text>
</a>
</g>
</g>
<!-- 14&#45;&gt;6 -->
<g id="edge13" class="edge">
<title>14&#45;&gt;6</title>
<path fill="none" stroke="red" d="M247,-512.76C247,-496.45 247,-475.06 247,-456.78"/>
<polygon fill="red" stroke="red" points="250.5,-456.72 247,-446.72 243.5,-456.72 250.5,-456.72"/>
<text text-anchor="middle" x="297.5" y="-483.8" font-family="Times,serif" font-size="14.00">[1, 1024, 1, 1]</text>
<text text-anchor="middle" x="297.5" y="-468.8" font-family="Times,serif" font-size="14.00">FP32 NCHW</text>
</g>
<!-- 15 -->
<g id="node15" class="node">
<title>15</title>
<g id="a_node15"><a xlink:title="[1, 10, 1, 1]">
<polygon fill="none" stroke="red" stroke-width="3" stroke-dasharray="5,2" points="332,-322 162,-322 162,-269 332,-269 332,-322"/>
<text text-anchor="middle" x="247" y="-306.8" font-family="Helvetica,sans-Serif" font-size="14.00">MatMul&#45;12_out_region</text>
<text text-anchor="middle" x="247" y="-291.8" font-family="Helvetica,sans-Serif" font-size="14.00">[1, 10, 1, 1]</text>
<text text-anchor="middle" x="247" y="-276.8" font-family="Helvetica,sans-Serif" font-size="14.00">FP32 NCHW</text>
</a>
</g>
</g>
<!-- 6&#45;&gt;15 -->
<g id="edge14" class="edge">
<title>6&#45;&gt;15</title>
<path fill="none" stroke="red" d="M247,-388.37C247,-371.57 247,-350.09 247,-332.12"/>
<polygon fill="red" stroke="red" points="250.5,-332.01 247,-322.01 243.5,-332.01 250.5,-332.01"/>
<text text-anchor="middle" x="292.5" y="-358.8" font-family="Times,serif" font-size="14.00">[1, 10, 1, 1]</text>
<text text-anchor="middle" x="292.5" y="-343.8" font-family="Times,serif" font-size="14.00">FP32 NCHW</text>
</g>
<!-- 7 -->
<g id="node16" class="node">
<title>7</title>
<g id="a_node16"><a xlink:title="HasLog:0&#10;LayerType:LogSoftmaxTopK&#10;Name:Softmax&#45;14 + ArgMax&#45;15&#10;Operation:MAX&#10;TacticValue:0x00000000000003e9&#10;TopK:1&#10;">
<path fill="gray" stroke="white" d="M152.5,-119.5C152.5,-119.5 341.5,-119.5 341.5,-119.5 347.5,-119.5 353.5,-125.5 353.5,-131.5 353.5,-131.5 353.5,-190.5 353.5,-190.5 353.5,-196.5 347.5,-202.5 341.5,-202.5 341.5,-202.5 152.5,-202.5 152.5,-202.5 146.5,-202.5 140.5,-196.5 140.5,-190.5 140.5,-190.5 140.5,-131.5 140.5,-131.5 140.5,-125.5 146.5,-119.5 152.5,-119.5"/>
<polygon fill="none" stroke="transparent" points="149,-173 149,-198 346,-198 346,-173 149,-173"/>
<text text-anchor="start" x="154" y="-182.8" font-family="Helvetica,sans-Serif" font-weight="bold" font-size="14.00">LogSoftmaxTopK (0 ms)</text>
<polygon fill="none" stroke="transparent" points="149,-148 149,-173 346,-173 346,-148 149,-148"/>
<text text-anchor="start" x="205" y="-156.8" font-family="Helvetica,sans-Serif" font-size="14.00">Softmax&#45;14 </text>
<polygon fill="none" stroke="transparent" points="149,-123 149,-148 346,-148 346,-123 149,-123"/>
<text text-anchor="start" x="207" y="-131.8" font-family="Helvetica,sans-Serif" font-size="14.00"> ArgMax&#45;15</text>
</a>
</g>
</g>
<!-- 15&#45;&gt;7 -->
<g id="edge15" class="edge">
<title>15&#45;&gt;7</title>
<path fill="none" stroke="red" d="M247,-268.95C247,-253.02 247,-231.95 247,-212.73"/>
<polygon fill="red" stroke="red" points="250.5,-212.59 247,-202.59 243.5,-212.59 250.5,-212.59"/>
<text text-anchor="middle" x="292.5" y="-239.8" font-family="Times,serif" font-size="14.00">[1, 10, 1, 1]</text>
<text text-anchor="middle" x="292.5" y="-224.8" font-family="Times,serif" font-size="14.00">FP32 NCHW</text>
</g>
<!-- 16 -->
<g id="node17" class="node">
<title>16</title>
<g id="a_node17"><a xlink:title="[1, 1]">
<polygon fill="none" stroke="red" stroke-width="3" stroke-dasharray="5,2" points="282,-53 0,-53 0,0 282,0 282,-53"/>
<text text-anchor="middle" x="141" y="-37.8" font-family="Helvetica,sans-Serif" font-size="14.00">(Unnamed Layer* 28) [TopK]_output_1</text>
<text text-anchor="middle" x="141" y="-22.8" font-family="Helvetica,sans-Serif" font-size="14.00">[1, 1]</text>
<text text-anchor="middle" x="141" y="-7.8" font-family="Helvetica,sans-Serif" font-size="14.00">FP32 NCHW</text>
</a>
</g>
</g>
<!-- 7&#45;&gt;16 -->
<g id="edge16" class="edge">
<title>7&#45;&gt;16</title>
<path fill="none" stroke="red" d="M214.33,-119.16C199.59,-100.74 182.37,-79.22 168.33,-61.66"/>
<polygon fill="red" stroke="red" points="170.69,-59.01 161.71,-53.39 165.23,-63.39 170.69,-59.01"/>
<text text-anchor="middle" x="243.5" y="-89.8" font-family="Times,serif" font-size="14.00">[1, 1]</text>
<text text-anchor="middle" x="243.5" y="-74.8" font-family="Times,serif" font-size="14.00">FP32 NCHW</text>
</g>
<!-- 17 -->
<g id="node18" class="node">
<title>17</title>
<g id="a_node18"><a xlink:title="[1]">
<polygon fill="gray" stroke="lightgray" stroke-width="3" points="407.5,-53 300.5,-53 300.5,0 407.5,0 407.5,-53"/>
<text text-anchor="middle" x="354" y="-37.8" font-family="Helvetica,sans-Serif" font-size="14.00">tensor&#45;15</text>
<text text-anchor="middle" x="354" y="-22.8" font-family="Helvetica,sans-Serif" font-size="14.00">[1]</text>
<text text-anchor="middle" x="354" y="-7.8" font-family="Helvetica,sans-Serif" font-size="14.00">INT32 NCHW</text>
</a>
</g>
</g>
<!-- 7&#45;&gt;17 -->
<g id="edge17" class="edge">
<title>7&#45;&gt;17</title>
<path fill="none" stroke="lightgray" d="M279.98,-119.16C294.99,-100.57 312.55,-78.83 326.8,-61.18"/>
<polygon fill="lightgray" stroke="lightgray" points="329.53,-63.37 333.09,-53.39 324.08,-58.97 329.53,-63.37"/>
<text text-anchor="middle" x="365" y="-89.8" font-family="Times,serif" font-size="14.00">[1]</text>
<text text-anchor="middle" x="365" y="-74.8" font-family="Times,serif" font-size="14.00">INT32 NCHW</text>
</g>
</g>
</svg>
